<?xml version="1.0" standalone="yes"?>
<svg xmlns="http://www.w3.org/2000/svg" viewBox="0 00 554 144">
<path style="fill:#78502e; stroke:none;" d="M42.0046 0.656631C29.8961 4.35217 36.3966 20.7314 47.9954 17.5656C60.0148 14.2849 53.3986 -2.82082 42.0046 0.656631M335 13L335 61C322.42 44.4995 298.421 43.8323 285.61 61.0008C274.428 75.9851 273.658 101.689 284.637 117C296.147 133.052 327.59 135.798 335 114C336.327 118.446 336.801 123.354 337 128L345 128C342.546 114.781 344 100.418 344 87L344 13L335 13M25.1049 17.858C13.7172 22.9788 24.6776 38.2989 34.956 32.821C46.1563 26.8517 35.1599 13.3366 25.1049 17.858M55.044 17.7423C49.7626 19.8923 48.4185 27.5508 52.4336 31.5664C55.1641 34.297 60.4856 34.6705 63.956 33.2577C69.2374 31.1077 70.5815 23.4492 66.5664 19.4336C63.8359 16.703 58.5144 16.3295 55.044 17.7423M128 20L128 128C144.406 128.136 163.414 131.938 177.985 121.776C190.36 113.147 193.955 93.4725 185.2 81.0008C180.752 74.6652 174.129 71.4275 167 69C172.752 66.2586 178.081 63.4284 181.751 57.9853C189.854 45.9657 185.805 29.3368 172.999 22.6343C158.714 15.157 143.089 19.3521 128 20M137 66L137 26C147.378 24.0733 160.847 23.7458 169.957 29.9691C180.459 37.1438 178.62 54.2635 168.985 61.1998C159.91 67.7321 147.523 66 137 66M18.0154 35.6528C6.37654 39.4 14.1195 56.1864 24.9954 52.1026C36.5781 47.7534 29.5106 31.9518 18.0154 35.6528M64.0154 35.7423C52.7258 40.1752 60.2139 56.151 70.9954 52.1026C82.5265 47.7728 75.5341 31.2194 64.0154 35.7423M209 54C209.426 56.4691 210.132 58.6454 211 61C224.194 54.2573 243.46 50.5922 248.956 69C250.037 72.6222 249.998 76.259 250 80C241.853 80 233.901 80.5558 226 82.7454C220.973 84.1386 216.05 85.926 212.015 89.3295C209.171 91.7276 206.755 94.611 205.189 98C203.887 100.818 203.129 103.897 203.055 107C202.457 132.119 239.839 138.606 250 117C251.084 120.569 251.531 124.293 252 128L260 128C256.65 109.956 261.072 91.1299 258.711 73C257.016 59.9937 250.309 50.6861 237 48.5903C233.307 48.0088 229.706 47.8605 226 48.439C219.874 49.3955 214.665 51.6454 209 54M422 126L421 119C413.01 120.848 405.375 123.723 397 122.826C379.391 120.941 371.045 105.239 371 89L427 89C427 81.8028 426.517 74.9017 424.251 68C417.639 47.8643 392.009 41.7899 376.015 55.3287C351.744 75.8736 359.671 126.138 394 129.826C403.806 130.88 412.599 128.155 422 126M456 63C454.661 58.7665 454.092 54.441 454 50L447 50L447 128L456 128L456 90C456 83.4116 455.08 76.1457 457.916 70C462.156 60.8103 473.66 51.5115 484 57.1397C493.624 62.3779 494.999 72.1674 495 82L495 128L504 128L504 91C504 84.4488 503.146 77.2705 505.388 71C508.374 62.6479 517.436 53.9023 527 55.5579C535.718 57.0669 541.139 64.9273 543.1 73C544.666 79.4452 544 86.4153 544 93L544 128L553 128L553 92C553 82.8342 553.109 72.7176 549.907 64C544.105 48.2088 525.686 43.9329 512.004 52.4684C507.317 55.3922 504.513 59.8814 501 64C493.44 43.6624 464.595 42.7022 456 63M11.0039 53.5764C-1.2413 56.9852 5.72382 73.4023 16.9954 70.4128C29.186 67.1795 22.6529 50.3335 11.0039 53.5764M71.0039 53.5478C58.0765 56.3816 64.0864 73.7349 75.9954 70.4236C87.5415 67.2132 82.3535 51.0599 71.0039 53.5478M308 55.3295C318.159 53.5972 328.468 59.8363 332.647 69C335.27 74.7514 335 80.8347 335 87C335 102.027 332.967 119.166 315 122.532C303.343 124.717 293.307 117.416 288.88 107C281.549 89.7541 286.108 59.0626 308 55.3295M418 82L371 82C372.691 73.83 375.168 65.1144 382.09 59.7894C390.86 53.0431 404.948 53.1674 412.211 62.1744C416.858 67.9364 417.98 74.8441 418 82M77 71.5625C64.3441 72.9141 66.7906 89.8623 78.9992 88.8758C90.6204 87.9367 88.4847 70.336 77 71.5625M5.10494 72.7423C-5.94339 77.4303 3.7728 92.2674 13.9846 88.2577C19.5026 86.091 21.7931 78.8832 17.4275 74.4336C14.6208 71.573 8.6822 71.2244 5.10494 72.7423M137 73C144.528 73 152.634 72.1361 160 73.8989C165.372 75.1845 170.858 77.1323 174.787 81.1852C183.056 89.7148 183.076 105.264 174.787 113.815C170.598 118.136 164.78 120.06 159 121.076C154.431 121.88 141.415 124.444 138.028 120.258C135.698 117.379 137 110.478 137 107L137 73M250 87C250 93.6697 251.143 101.559 249.2 108C245.679 119.674 228.786 127.998 218.105 120.146C208.869 113.356 210.987 98.2223 220.04 92.4792C223.66 90.1827 227.852 89.0927 232 88.2106C238.007 86.9334 243.891 87 250 87M7.01466 92.6566C-5.05598 96.3761 1.50698 112.632 12.9954 109.424C25.1512 106.029 18.5213 89.1109 7.01466 92.6566M76.0046 92.7461C64.5301 97.069 71.8109 113.604 82.9846 109.257C94.2684 104.867 86.819 88.672 76.0046 92.7461M12.044 113.742C6.7626 115.892 5.41846 123.551 9.43364 127.566C12.1641 130.297 17.4856 130.67 20.956 129.258C26.2374 127.108 27.5815 119.449 23.5664 115.434C20.8359 112.703 15.5144 112.33 12.044 113.742M69.0154 113.742C56.6951 118.596 67.1359 133.976 77.8951 129.142C88.9416 124.179 79.4519 109.631 69.0154 113.742M30.0046 126.573C17.999 130.013 24.8054 146.759 35.9954 143.343C48.0834 139.654 41.6416 123.239 30.0046 126.573M53.0154 126.654C41.8983 130.191 48.136 146.429 58.9961 143.424C71.2491 140.033 64.6609 122.947 53.0154 126.654z"/>
</svg>
